<?xml version="1.0" encoding="UTF-8"?>
<svg version="1.1" viewBox="0 0 1280 1280" width="1280" height="1280" xmlns="http://www.w3.org/2000/svg">
<path transform="translate(620,234)" d="m0 0h13l9 3 2 2 14 1 6-4 7-1h25l24 1 13 2 6 4 3 5 7 2 9 4 7 2h15l17-4h10l10 2 11 4 6 4 14 2 8 3 10 2 7 3 16 8 10 4 9 2 8 4 5 5 4 11 1 5 9-1 8-6h10l6 3 4 4 16 8 13 6 10 5 9 6 12 6 5 3 10 5 24 16 6 5 6 3 14 8 11 8 9 8 4 6v8l-4 7-8 6-11 8-3 4-2 12-2 3-8 4-3 7-1 9-3 3 1 5 10 9 3 5v2l4 2v2l4 2v2l5 2 6 5 11 8 6 5 8 6v2l4 2 3 4 3 8 10 2 6 3 6 5 5 5 5 8 6 5v2l3 1 6 7 5 3 7 11 14 14 5 6v2h2l6 8 3 3 1 6-3 7-6 8-1 2h-2l-2 4-13 16-5 6-7 8-9 10-12 13-7 7-9 11-17 17-12 13-18 18-8 7-16 16-3 5-2 1-2 6v14l4 1v15l5-2 2-2 5 1 2 2 7 2 5 3 7 10 5 6 14 21v6l-7 5-6-1-6-5-4-6-3-2-1 1v11l4 2v6l-5 3v8l-8 7-9 2-3 7-5 1-3 5-3 3-9 1-4-1h-10l-5 4-4 9-4 11-7 6-9 5-7 3h-6l-8-6h-2l-4 10-4 3-2 8-7 4h-8l-6-1-4 6-6 5-8 2-6 8-6 2h-9l-7-4h-5l-5 6-2 9-4 3-8 4-9 4h-9l-5-3h-15l-6 4-3 5-2 5-6 4-20 7-3 2-13 3-13 1-5-1h-10l-7 2-5 5-8 2-9-1-7-3-4-1-1 3-6 1-2 5-5 2-46 5h-10l-6-2h-16l-8 2h-34l-7-1h-16l-11-2-14-1-12-2-13-1-7-6-10-1h-14l-12-2-14-3-3-3-3-9-4-4-13 1-9 3h-10l-5-3-9-4-9-3-12-2-5-3-14-4-12-5-2-3-3-9-3-6-3-3h-7l-13 4-7 1-9-5-4-3-12-5-9-5-11-7-9-6-13-6-11-6-15-10-17-9-5-8-15-7-2-3v-6l-7-4-11-2-1-4 5-8 4-5 4-4h2l2-5 7-9 4-5 10-7 4-6 3-7v-10l7-3 5-5-1-5-12-9-5-5v-2l-5-2-12-11-7-5v-2l-5-2-12-11-11-9-3-4-2-7-5-6-1-13-1-1-11-1-1 4h-2l-1-4-3-1-1-6-7-1-10-5-11-12-16-16-7-8-6-7-8-10-2-3 1-5 4-8 5-6 9-11 7-8 7-9 3-4h2l2-4h2l2-5 9-9 9-11 6-7h2l2-5 56-56 3-4h2l2-5 8-7 2-5h5l1-3h2l2-4 8-7 2-6 3-7v-7h-4v-9l4-5-3-9-2-8-2-12-2-13-1-14v-15l2-6 4-5 7-4 11-2 1-1h11l5 5v2l4 2 4 6 2 2 5-1v-6l-5-13-3-5-2-4 1-5 4-6 6-5 10-7 13-5h7l20 6 1 2-1 2h9l4 1 2-4 3-25 7-10 7-4 17-3 1-1h8l2 1h11l2-9 3-7 12-5 25-1 6-7 6-2h9l3 1 10-3 10-6 9-6 8-3 8-2h15l6 8v2l6-4 10 4 3-3h4l2 3 5-1 4-5 7-10 9-3 8-2zm-225 66v2h2v-2zm700 574 1 3 1-3z" fill="#FDFDFD"/>
<path transform="translate(608,511)" d="m0 0h26l-1 6-5 11-3 10-1 7v18l3 14 5 12 6 11 13 14 13 8 12 5 13 3h23l16-4 17-9 11-9 7-9h2l7 15 6 20 3 19v34l-3 17-6 21-8 18-11 18-9 11-11 12-10 9-16 11-18 10-15 6-25 6-15 2h-24l-21-3-20-6-15-6-17-9-16-12-12-11-9-9-11-15-9-16-6-13-6-18-4-20-1-8v-23l3-21 5-19 7-17 9-17 12-16 12-13 11-10 14-10 16-9 11-5 18-6 21-4z" fill="#5E5C9F"/>
<path transform="translate(932,394)" d="m0 0 7 3 32 19 18 11 24 14 3 2-2 13-8 35-9 33-9 29-11 32-11 28-15 33-15 29-8 14-12 19-14 20-13 16-9 11-9 9-7 8-14 14-8 7-16 13-15 10-21 13-21 11-24 10-28 9-28 7-32 5-30 2h-31l-33-2-33-4-36-6-10-2v-2h18l13 1h68l35-3 39-6 25-6 30-9 24-10 24-12 18-11 14-10 14-11 7-6h2l2-4 13-12 12-14 12-16 15-23 12-23 12-25 13-37 8-29 9-45 4-31 3-32 1-19z" fill="#7ABC51"/>
<path transform="translate(644,436)" d="m0 0h68l37 4 49 8 5 1v2h-14l-15-1h-74l-40 4-35 6-24 6-36 12-16 7-22 11-18 11-15 11-16 13-12 11-13 13-18 22-10 15-14 24-8 16-8 17-10 28-9 30-7 30-6 35-5 44-2 36-1 62-6-2-16-9-17-10-28-16-17-11 4-20 14-56 9-30 15-44 12-29 13-28 13-26 15-25 17-25 11-14 12-14 7-8 14-15 8-8 8-7 15-12 20-14 18-11 23-12 23-10 18-6 22-6 23-5 19-3z" fill="#7ABC51"/>
<path transform="translate(621,378)" d="m0 0h56l24 2 29 4 26 5 44 11 6 3-4 1-43-6-39-3h-70l-34 3-37 6-30 7-29 9-25 10-25 12-14 8-19 12-19 14-10 9-10 8-17 16-18 20-10 13-14 19-14 21-14 25-12 23-8 17-15 37-15 44-12 42-12 53-3 14-2 1-4-3-7-3-5-4-5-5v-2l-5-2-12-11-7-5v-2l-5-2-12-11-11-9-3-4-1-7 11-21 10-18 16-28 15-24 16-25 15-22 14-19 16-21 11-14 26-30 7-7 7-8 28-28 8-7 11-9 13-11 20-15 30-20 28-16 25-12 19-8 36-12 19-5 31-6z" fill="#7ABC51"/>
<path transform="translate(1054,471)" d="m0 0 5 3 11 10 10 7 1 4 4 2v2l4 2v2l5 2 6 5 11 8 6 5 8 6v2l4 2 3 4-1 6-8 16-12 22-16 27-17 28-20 30-11 16-14 19-14 18-9 11-11 13-13 15-12 13-15 16-4 2v2l-8 7-11 11-11 9-10 9-28 21-16 11-19 12-27 15-19 9-20 8-16 6-27 8-30 7-33 5-28 2h-29l-30-2-31-4-28-5-40-10-11-4 2-2 36 5 42 4h76l33-3 33-5 31-7 35-11 12-5 33-15 14-8 20-13 14-10 17-14 10-9 12-11 24-26 15-20 12-17 15-25 10-18 18-36 14-35 12-34 11-37 11-44 8-38z" fill="#7ABC51"/>
<path transform="translate(637,327)" d="m0 0h26l31 2 44 5 38 7 34 8 2 2-16-1-46-6-26-2-27-1h-49l-40 3-29 4-33 6-28 7-35 11-28 11-26 12-27 14-21 13-28 19-18 14-14 11-20 18-16 15-9 9-7 8-12 12-7 8-12 14-7 9-11 14-13 18-4 5-19 29-13 20-16 27-14 25-17 33-4 7-6-1-5-4-7-8-18-18-7-8-6-7-8-10-2-3 1-5 4-8 5-6 9-11 7-8 7-9 3-4h2l2-4h2l2-5 9-9 9-11 6-7h2l2-5 56-56 3-4h2v-2l11-9 12-11 13-11 16-13 30-23 19-13 27-18 32-19 42-22 32-14 30-11 27-9 30-8 45-9 30-4 28-2z" fill="#7ABC51"/>
<path transform="translate(1168,570)" d="m0 0 5 3v2l3 1 6 7 5 3 7 11 14 14 5 6v2h2l6 8 3 3 1 6-3 7-6 8-1 2h-2l-2 4-13 16-5 6-7 8-9 10-12 13-7 7-9 11-17 17-12 13-18 18-8 7-14 14-5 3-12 11-11 9-14 11-18 14-17 12-20 14-19 12-25 15-28 15-26 13-28 12-24 9-30 10-30 8-34 7-40 6-22 2h-74l-42-4-37-6-36-8-17-5v-1l13 1 35 5 39 4 19 1h64l39-3 35-5 36-7 32-9 27-9 24-10 25-11 25-13 26-16 16-11 18-13 16-13 11-9 10-9 12-11 10-9 11-11 7-8 8-8 7-8 9-11 13-16 12-15 13-18 13-19 10-15 13-21 16-27 16-28z" fill="#7ABC51"/>
<path transform="translate(635,661)" d="m0 0h33v19l-1 2-26 1h-19l1 14h37v19l-3 2-35 2-1 14 45-2 1 1v17l-1 4-45 2h-30v-25l1-68 10-1z" fill="#EF8838"/>
<path transform="translate(538,664)" d="m0 0h21l7 2 8 6 5 8 2 7v11l-3 9-9 10-6 4-14 3h-8l-4-3-3-11v-7h9l6-3 2-4-1-7-1-2-18-1v72l-3 1h-24v-92l1-1z" fill="#EF8838"/>
<path transform="translate(727,656)" d="m0 0h22l9 1 2 11v12h-29l-8 3-6 4-6 9-1 3v16l3 6 5 5 7 3 5 1h8l19-3 3 1v13l-2 9-16 3h-23l-14-3-9-5-9-8-7-14-2-7v-18l4-13 6-9 4-5 10-7 11-5z" fill="#EF8838"/>
<path transform="translate(299,332)" d="m0 0h7l11 3 7 8 5 8 4 10v12l-4 9-11 10-21 13-6 1-15-28-3-5v-2h-2l-4-7-2-4 1-5 4-6 6-5 10-7z" fill="#EF893B"/>
<path transform="translate(207,875)" d="m0 0 5 1 8 6 5 4-2 6-10 22 4-2 11-8 10-7 5 2 13 9-1 5-8 10-13 17-11 14-9-3-3-4-3-5-15-7-2-3v-6l-7-4-11-2-1-4 5-8 4-5 4-4h2l2-5 7-9 4-5z" fill="#EF8939"/>
<path transform="translate(451,266)" d="m0 0h7l10 36 4 15v5l-10 4-6 2h-5l-13-12-15-14 2 11 6 21-3 3-12 4h-2l-10-37-4-15 1-7 10-5 3-1 25-1 6-7z" fill="#EF8838"/>
<path transform="translate(901,284)" d="m0 0 7 1 8 4 5 5 4 11 1 5 9-1 8-6h10l5 2-1 6-9 17-13 28-3 5-20-8-3-20-2-17-1-2-12 26-3 4-9-3-5-2-1-5 20-40z" fill="#EF8838"/>
<path transform="translate(600,1025)" d="m0 0h38l5 3 5 5 3 5 2 7v13l-2 9-6 9-5 4-1 2-6 1h-34l-1-1 1-43z" fill="#EF8838"/>
<path transform="translate(503,1011)" d="m0 0 14 2 6 2 5 18 4 16v3h2l1-8 6-25 16 2-1 7-12 48-5 1-13-1-7-6-10-1h-14l-6-2 1-8 11-42z" fill="#EF8838"/>
<path transform="translate(751,1013)" d="m0 0h9l2 18 3 36-4 3-8 2-9-1-7-3-4-1-1 3-6 1-2 5-5 2h-8l-2-6-4-42-1-9 6-2 15-1 8 10 13 19 1 1-3-26v-7z" fill="#EF8838"/>
<path transform="translate(922,955)" d="m0 0 4 1 7 18 7 20 3 8-1 5-4 5-6 2h-9l-7-4h-5l-5 6-2 9-4 3-6 2-5-12-11-30-4-11 1-2 16-7 5 2 8 8 11 9 6 5-1-6-9-23 1-4z" fill="#EF8838"/>
<path transform="translate(508,247)" d="m0 0h15l2 2 2 11-1 1-18 2-7 3-5 4-2 4v15l2 5 5 3h9l7-1-1-9-7 1-2-6-1-6 7-3 15-4h3l3 10 4 20v5l-21 7-8 2h-16l-10-5-6-7-4-11v-15l6-12 5-6 8-5 8-3z" fill="#EF8839"/>
<path transform="translate(236,374)" d="m0 0 4 1 14 10 18 13 15 10-1 4-12 8-5-1-10-7-5 2-11 7h-2l3 15-1 5-11 9-3 2h-3l-2-8-2-12-2-13-1-14v-15l2-6 4-5 7-4z" fill="#EF8839"/>
<path transform="translate(991,917)" d="m0 0h4l11 24 13 26v2l-10 4h-6l-8-6h-2l-4 10-4 3-2 8-7 4h-6l-4-6-11-23-9-18 1-4 10-5 5 1 8 15 6-2 10-6-3-9-4-7 1-5z" fill="#EF8838"/>
<path transform="translate(365,299)" d="m0 0 4 2 40 40 2 1v2l-15 7h-5l-9-10-6 1-14 6v19l-16 8h-3v-20l2-43 6-8 7-4z" fill="#EF8838"/>
<path transform="translate(1076,375)" d="m0 0 7 3 11 7 13 11 5 7v8l-4 7-8 6-11 8-3 4-2 12-1 2-5-1-11-7 2-10 8-25 2-1 2 3 4 1h7l1-2v-6l-9-6-5 5-14 19-8 12-6-1-10-8 2-5 16-21 13-18z" fill="#EF8838"/>
<path transform="translate(600,235)" d="m0 0h14l1 1v12l-2 1-25 2v9l14-2h10v14l-13 2h-9v10l13-2 7-1h8v14l-13 2-28 3h-6l-1-3-2-32v-22l6-4 13-3z" fill="#EF8838"/>
<path transform="translate(694,235)" d="m0 0 26 1 13 2 6 4 1 2v8h-17l-12-1-1 9h9l15 2-1 11-1 2h-13l-12-1v8l4 1 23 2 1 1-1 12-1 1h-12l-35-3-1-1 1-12 5-32 2-14z" fill="#EF8839"/>
<path transform="translate(843,263)" d="m0 0 9 1 4 2 10 2 7 3 14 7 1 4-3 8-8-1-20-7-3 8 10 3 12 4-3 11-1 2-9-1-16-6-2 10 9 2 17 6-2 8-2 4-8-1-38-13 1-6 8-17 12-31z" fill="#EF893A"/>
<path transform="translate(1024,343)" d="m0 0 13 5 10 7 15 10 3 3-2 5-5 5-7-3-14-9-5 1-2 6 5 2 14 8-1 4-6 8-6-2-13-8-4 1-3 3 2 4 21 12-1 6-5 6-5-1-19-12-18-11 2-5 11-15 18-27z" fill="#EF8838"/>
<path transform="translate(460 1e3)" d="m0 0 12 2 9 3 3 43v18l-15-3-3-3-3-9-4-4-13 1-9 3h-10l-5-3 2-5 12-14 13-15z" fill="#EF8838"/>
<path transform="translate(800 1e3)" d="m0 0h10l3 9v4l-2 1-15 2-6 3-5 6-1 2v12l4 8 3 2h8l7-1-1-7-7-1-2-6v-6l21-7 3 7 5 22-1 6-8 3-15 4-13 1-10-3-6-5-4-7-2-5v-19l4-9 6-7 12-6z" fill="#EF8838"/>
<path transform="translate(359,964)" d="m0 0 8 2 12 6-2 34-2 25-2 2-12-5-2-3-3-9-3-6-3-3h-7l-13 4-7 1-9-5 2-4 13-12 8-7 12-11 8-7z" fill="#EF8838"/>
<path transform="translate(852,984)" d="m0 0 5 3 14 18 16 21 3 4v3l-7 3h-9l-5-3h-15l-6 4-3 5-2 5-6 4-8 2v-15l6-46 6-4z" fill="#EF8838"/>
<path transform="translate(184,412)" d="m0 0h10l7 5 3 5 1 9-1 10-1 4v4h3l1 3-4 10-4 3 1 8-3 5-3 2h-6l-5-5-8-10-7-10-9-10-3-5 1-5h2l2-5 10-10 4-2 2-3z" fill="#EF893A"/>
<path transform="translate(1025,893)" d="m0 0 6 2 38 28 4 3-1 5-4 4-9 1-4-1h-10l-5 4-4 9-4 11-7 6-4 1-4-21-6-36v-5l11-9z" fill="#EF8838"/>
<path transform="translate(693,1021)" d="m0 0h7l1 1v13l-10 1h-16l1 9 12-1h10v14l-11 1h-11v10l2-1 24-2 1 10-2 4-28 3h-10l-4-2-1-6-1-50 8-2z" fill="#EF8838"/>
<path transform="translate(259,911)" d="m0 0 5 1 23 12 10 6-1 6-4 6-5-1-16-9h-3l-3 7 6 2 10 6 1 3-6 9-9-3-8-5-4-1-1 5v4l19 10-1 5-5 6-11-5-11-6-15-10 6-11 10-15z" fill="#EF8838"/>
<path transform="translate(797,251)" d="m0 0h10l10 2 9 3 1 4-2 11-3 1-10-4h-12l-6 3-4 5-2 4v10l4 6 6 3 16 2 2 2-4 12h-14l-10-3-11-6-7-8-3-8v-11l5-13 8-9 4-1v-2z" fill="#EF893A"/>
<path transform="translate(622,234)" d="m0 0h11l9 3 2 2 14 1 6-4 7-1h11l-1 5-10 14-11 16-1 3-2 22h-19l-1-3 1-10v-14l-14-28-2-3z" fill="#EF8838"/>
<path transform="translate(968,313)" d="m0 0 6 2 28 14 9 6 6 3-2 7-4 5-6-2-8-5-3-1-2 5-13 21-8 13-5-1-12-7 1-5 14-21 8-15-14-7 1-5z" fill="#EF8838"/>
<path transform="translate(393,979)" d="m0 0 11 3 6 2 1 2 1 19 12-11 3-3 10 2 8 3-3 5-11 9-14 12-3 2-8 18-11-1-6-3 5-14 1-2v-18l-2-15z" fill="#EF8838"/>
<path transform="translate(1079,853)" d="m0 0 5 1 5 8-5 6-4 3h-2l3 7 9 13 8 11 1 8-8 7-4 1-10-15-11-15-2-3-4 1-7 6-5-1-5-6 1-5 14-11z" fill="#EF8838"/>
<path transform="translate(304,936)" d="m0 0 5 1 9 5 3 3-12 19-10 15-1 4 10 6 7 4 1 4-4 6-2 1-12-5-9-5-11-7-3-2 2-5 13-20 11-18z" fill="#EF8838"/>
<path transform="translate(562,1021)" d="m0 0h11l5 1v8l-6 39-2 11h-11l-7-2 1-10 7-42z" fill="#EF8839"/>
<path transform="translate(1093,841)" d="m0 0 8 4 7 10 5 6 14 21v6l-7 5-4-1-13-16-9-11-11-13 3-5z" fill="#EF8838"/>
<path transform="translate(295,349)" d="m0 0h7l6 4 5 7 2 5v8l-4 6-7 6-5-2-8-13-6-11v-4z" fill="#FDFDFD"/>
<path transform="translate(616,1038)" d="m0 0h12l3 1 5 8v11l-4 8-3 3-7 2h-7v-29z" fill="#FDFDFD"/>
<path transform="translate(181,430)" d="m0 0 6 1 2 3v5l-4 5 5 6 4 1 6-5 2-2 1 5h3l1 3-4 10-4 3h-2l-10-13-9-11-2-3v-4z" fill="#FDFDFD"/>
<path transform="translate(441,272)" d="m0 0 2 4 7 24-1 3-8-7-20-20 14-1 5-1z" fill="#FDFDFD"/>
<path transform="translate(511,1037)" d="m0 0 2 2 8 28 1 5-3-2-15-2 4-17z" fill="#FDFDFD"/>
<path transform="translate(992,957)" d="m0 0h3l6 12-1 2-5-4h-2l-4 10-6 4-5-11-1-5z" fill="#FDFDFD"/>
<path transform="translate(723,1044)" d="m0 0 5 5 13 18-4 1-4-1-1 3-6 1-1 2-2-20z" fill="#FDFDFD"/>
<path transform="translate(924,305)" d="m0 0 2 3v2l9-1 4-2-2 6-8 17-2 4h-1l-2-20z" fill="#FDFDFD"/>
<path transform="translate(228,920)" d="m0 0 2 1-10 13-8 11-8-5v-2l14-10z" fill="#FDFDFD"/>
<path transform="translate(203,898)" d="m0 0 1 2-12 26-8-4 6-8 9-11z" fill="#FDFDFD"/>
<path transform="translate(898,995)" d="m0 0 4 2 13 10 1 2-6 2-5 5-7-19z" fill="#FDFDFD"/>
<path transform="translate(447,1042)" d="m0 0 9 1 10 3v12l-2-4-5-6-13 1-5 2 2-4z" fill="#FDFDFD"/>
<path transform="translate(644,240)" d="m0 0h12l2 1-2 5-5 8-3-4z" fill="#FDFDFD"/>
<path transform="translate(234,392)" d="m0 0 5 2 8 6-4 5-3 2h-3l-3-13z" fill="#FDFDFD"/>
<path transform="translate(362,981)" d="m0 0 2 2-2 13-6-1-4-2 1-4z" fill="#FDFDFD"/>
<path transform="translate(361,317)" d="m0 0 7 6 3 5-8 5h-2z" fill="#FDFDFD"/>
<path transform="translate(1026,911)" d="m0 0 5 2 6 5-1 5-5 3h-2l-3-12z" fill="#FDFDFD"/>
<path transform="translate(849 1e3)" d="m0 0 5 5 3 4-1 4-5 2h-3v-14z" fill="#FDFDFD"/>
<path transform="translate(464,1018)" d="m0 0h2l1 14-8-1-2-1 1-4z" fill="#FDFDFD"/>
<path transform="translate(864,1026)" d="m0 0 5 5v1l-15 1-7 4v-5l12-5z" fill="#FDFDFD"/>
<path transform="translate(1049,929)" d="m0 0 5 5-9 1-5 4-4 9-2-1v-7l11-9z" fill="#FDFDFD"/>
<path transform="translate(220,406)" d="m0 0h1l5 35v5l-2-2-2-12-2-13z" fill="#FDFDFD"/>
<path transform="translate(350,1006)" d="m0 0 9 3v11l-3-4-3-6z" fill="#FDFDFD"/>
<path transform="translate(342 1e3)" d="m0 0 7 2-1 2-12 1 4-4z" fill="#FDFDFD"/>
<path transform="translate(1089,425)" d="m0 0h8l-4 4-5 3z" fill="#FDFDFD"/>
</svg>
